<svg width="50" height="50" xmlns="http://www.w3.org/2000/svg">

 <g>
  <title>background</title>
  <rect fill="none" id="canvas_background" height="402" width="582" y="-1" x="-1"/>
 </g>
 <g>
  <title>Layer 1</title>
  <path id="svg_3" fill="#FFFFFF" d="m20.3,10.5c-3.7,1.3 -6.9,4.1 -8.7,7.6c-0.6,1.2 -1.1,2.5 -1.3,3.9c-0.7,3.3 -0.2,6.9 1.3,9.9c1,2 2.4,3.7 4.2,5.1c1.6,1.3 3.5,2.3 5.6,2.8c2.6,0.7 5.3,0.7 7.8,0.1c2.3,-0.5 4.5,-1.6 6.3,-3.3c1.9,-1.7 3.2,-3.9 3.9,-6.4c0.8,-2.6 0.9,-5.4 0.4,-8.1c-4.8,0 -9.6,0 -14.4,0c0,2 0,4 0,6c2.8,0 5.6,0 8.3,0c-0.3,1.9 -1.5,3.7 -3.1,4.7c-1,0.7 -2.2,1.1 -3.4,1.3c-1.2,0.2 -2.5,0.2 -3.7,0c-1.2,-0.2 -2.4,-0.8 -3.4,-1.5c-1.6,-1.1 -2.9,-2.8 -3.5,-4.7c-0.7,-1.9 -0.7,-4 0,-6c0.5,-1.3 1.2,-2.6 2.2,-3.6c1.2,-1.3 2.8,-2.2 4.6,-2.5c1.5,-0.3 3,-0.3 4.5,0.2c1.2,0.4 2.4,1.1 3.3,1.9c0.9,-0.9 1.9,-1.9 2.8,-2.8c0.5,-0.5 1,-1 1.5,-1.5c-1.4,-1.3 -3.1,-2.4 -4.9,-3.1c-3.3,-1.1 -7,-1.1 -10.3,0z"/>
  <path id="svg_5" fill="#EA4335" d="m20.3,10.5c3.3,-1.1 7,-1.1 10.3,0.1c1.8,0.7 3.5,1.7 4.9,3.1c-0.5,0.5 -1,1 -1.5,1.5c-0.9,0.9 -1.9,1.9 -2.8,2.8c-0.9,-0.9 -2.1,-1.6 -3.3,-1.9c-1.4,-0.4 -3,-0.5 -4.5,-0.2c-1.7,0.4 -3.3,1.3 -4.6,2.5c-1,1 -1.8,2.3 -2.2,3.6c-1.7,-1.3 -3.3,-2.6 -5,-3.9c1.8,-3.5 5,-6.3 8.7,-7.6z"/>
  <path id="svg_7" fill="#FBBC05" d="m10.3,22c0.3,-1.3 0.7,-2.6 1.3,-3.9c1.7,1.3 3.3,2.6 5,3.9c-0.7,1.9 -0.7,4 0,6c-1.7,1.3 -3.3,2.6 -5,3.9c-1.5,-3.1 -2,-6.6 -1.3,-9.9z"/>
  <path id="svg_9" fill="#4285F4" d="m25.3,22.1c4.8,0 9.6,0 14.4,0c0.5,2.7 0.4,5.5 -0.4,8.1c-0.7,2.4 -2,4.6 -3.9,6.4c-1.6,-1.3 -3.2,-2.5 -4.9,-3.8c1.6,-1.1 2.7,-2.8 3.1,-4.7c-2.8,0 -5.6,0 -8.3,0c0,-2 0,-4 0,-6z"/>
  <path id="svg_11" fill="#34A853" d="m11.6,31.9c1.7,-1.3 3.3,-2.6 5,-3.9c0.6,1.9 1.9,3.6 3.5,4.7c1,0.7 2.2,1.2 3.4,1.5c1.2,0.2 2.4,0.2 3.7,0c1.2,-0.2 2.4,-0.7 3.4,-1.3c1.6,1.3 3.2,2.5 4.9,3.8c-1.8,1.6 -3.9,2.7 -6.3,3.3c-2.6,0.6 -5.3,0.6 -7.8,-0.1c-2,-0.5 -3.9,-1.5 -5.6,-2.8c-1.7,-1.5 -3.2,-3.3 -4.2,-5.2z"/>
 </g>
</svg>